<?xml version="1.0"?>
<!DOCTYPE svg PUBLIC "-//W3C//DTD SVG 1.1//EN" "http://www.w3.org/Graphics/SVG/1.1/DTD/svg11.dtd">
<svg width="390.3805382495899mm" height="92.65452035783514mm" viewBox="0 0 390.3805382495899 92.65452035783514" xmlns="http://www.w3.org/2000/svg" version="1.1">
<g id="Fillet006" transform="translate(195.196982,-36.461940) scale(1,-1)">
<path id="Fillet006_f0000"  d="M 178.51699401465646 -40.289199999999994 L 84.27070999327924 -40.289199999999994 L 17.15437179141813 -52.2359 L -17.044711725468147 -52.2359 L -84.16181172546817 -40.2892 L -178.51699401406964 -40.2892 A 6 6 0 0 1 -184.491 -45.7277L -191.24513244466925 -117.58408210545588 A 6.03334 6 -95.37 0 1 -185.278 -124.179L 185.2776621189441 -124.17865393533584 A 6.03334 6 -84.63 0 1 191.245 -117.584L 184.49066063343446 -45.727677847544854 A 6 6 0 0 1 178.517 -40.2892Z " stroke="#191919" stroke-width="0.35 px" style="stroke-width:0.35;stroke-miterlimit:4;stroke-dasharray:none;fill:#cccccc;fill-opacity:1.0;fill-rule: evenodd"/>
<path id="Fillet006_f0001"  d="M 178.51699401465646 -40.289199999999994 L 84.27070999327924 -40.289199999999994 L 84.27070999327924 -40.289199999999994 L 178.51699401465646 -40.289199999999994 L 178.51699401465646 -40.289199999999994 Z " stroke="#191919" stroke-width="0.35 px" style="stroke-width:0.35;stroke-miterlimit:4;stroke-dasharray:none;fill:#cccccc;fill-opacity:1.0;fill-rule: evenodd"/>
<path id="Fillet006_f0002"  d="M 178.51699401465646 -40.289199999999994 A 6 6 0 0 0 184.491 -45.7277L 184.49066063343443 -45.72767784754485 M 184.49066063343443 -45.72767784754485 L 178.51699401465646 -40.289199999999994 L 178.51699401465646 -40.289199999999994 Z " stroke="#191919" stroke-width="0.35 px" style="stroke-width:0.35;stroke-miterlimit:4;stroke-dasharray:none;fill:#cccccc;fill-opacity:1.0;fill-rule: evenodd"/>
<path id="Fillet006_f0003"  d="M 17.15437179141813 -52.2359 L 84.27070999327924 -40.289199999999994 L 84.27070999327924 -40.289199999999994 L 17.15437179141813 -52.2359 L 17.15437179141813 -52.2359 Z " stroke="#191919" stroke-width="0.35 px" style="stroke-width:0.35;stroke-miterlimit:4;stroke-dasharray:none;fill:#cccccc;fill-opacity:1.0;fill-rule: evenodd"/>
<path id="Fillet006_f0004"  d="M 191.3562963171452 -118.76668177847137 L 184.49066063343443 -45.72767784754485 L 184.49066063343443 -45.72767784754485 L 191.24513244473013 -117.5840821054996 L 191.3562963171452 -118.76668177847137 Z " stroke="#191919" stroke-width="0.35 px" style="stroke-width:0.35;stroke-miterlimit:4;stroke-dasharray:none;fill:#cccccc;fill-opacity:1.0;fill-rule: evenodd"/>
<path id="Fillet006_f0005"  d="M -17.044711725468147 -52.2359 L 17.15437179141813 -52.2359 L 17.15437179141813 -52.2359 L -17.044711725468147 -52.2359 L -17.044711725468147 -52.2359 Z " stroke="#191919" stroke-width="0.35 px" style="stroke-width:0.35;stroke-miterlimit:4;stroke-dasharray:none;fill:#cccccc;fill-opacity:1.0;fill-rule: evenodd"/>
<path id="Fillet006_f0006"  d="M 191.24513244473013 -117.5840821054996 A 6.03334 6 -84.63 0 0 185.278 -124.179L 185.38205298245003 -125.28920000000002 M 185.38205298245003 -125.28920000000001 L 191.35629631714517 -118.76668177847137 L 191.24513244473013 -117.5840821054996 Z " stroke="#191919" stroke-width="0.35 px" style="stroke-width:0.35;stroke-miterlimit:4;stroke-dasharray:none;fill:#cccccc;fill-opacity:1.0;fill-rule: evenodd"/>
<path id="Fillet006_f0007"  d="M -84.16181172546817 -40.2892 L -17.044711725468147 -52.2359 L -17.044711725468147 -52.2359 L -84.16181172546817 -40.2892 L -84.16181172546817 -40.2892 Z " stroke="#191919" stroke-width="0.35 px" style="stroke-width:0.35;stroke-miterlimit:4;stroke-dasharray:none;fill:#cccccc;fill-opacity:1.0;fill-rule: evenodd"/>
<path id="Fillet006_f0008"  d="M -185.2776621188878 -124.17865393533579 L 185.2776621189441 -124.17865393533584 L 185.38205298245003 -125.28920000000002 L -185.38205298240194 -125.28919999999997 L -185.2776621188878 -124.17865393533579 Z " stroke="#191919" stroke-width="0.35 px" style="stroke-width:0.35;stroke-miterlimit:4;stroke-dasharray:none;fill:#cccccc;fill-opacity:1.0;fill-rule: evenodd"/>
<path id="Fillet006_f0009"  d="M -178.51699401406964 -40.2892 L -84.16181172546817 -40.2892 L -84.16181172546817 -40.2892 L -178.51699401406964 -40.2892 L -178.51699401406964 -40.2892 Z " stroke="#191919" stroke-width="0.35 px" style="stroke-width:0.35;stroke-miterlimit:4;stroke-dasharray:none;fill:#cccccc;fill-opacity:1.0;fill-rule: evenodd"/>
<path id="Fillet006_f0010"  d="M -185.2776621188878 -124.1786539353358 A 6.03334 6 -95.37 0 0 -191.245 -117.584L -191.35629631709307 -118.76668177842812 M -191.35629631709307 -118.76668177842811 L -185.38205298240192 -125.28919999999997 L -185.2776621188878 -124.17865393533579 Z " stroke="#191919" stroke-width="0.35 px" style="stroke-width:0.35;stroke-miterlimit:4;stroke-dasharray:none;fill:#cccccc;fill-opacity:1.0;fill-rule: evenodd"/>
<path id="Fillet006_f0011"  d="M -184.4906606328435 -45.72767784750118 A 6 6 0 0 0 -178.517 -40.2892L -178.51699401406964 -40.2892 M -178.5169940140696 -40.2892 L -184.4906606328435 -45.72767784750118 L -184.4906606328435 -45.72767784750118 Z " stroke="#191919" stroke-width="0.35 px" style="stroke-width:0.35;stroke-miterlimit:4;stroke-dasharray:none;fill:#cccccc;fill-opacity:1.0;fill-rule: evenodd"/>
<path id="Fillet006_f0012"  d="M -191.35629631709307 -118.76668177842812 L -184.4906606328435 -45.72767784750118 L -184.4906606328435 -45.72767784750118 L -191.24513244466925 -117.58408210545588 L -191.35629631709307 -118.76668177842812 Z " stroke="#191919" stroke-width="0.35 px" style="stroke-width:0.35;stroke-miterlimit:4;stroke-dasharray:none;fill:#cccccc;fill-opacity:1.0;fill-rule: evenodd"/>
<path id="Fillet006_f0013"  d="M -178.51699401406964 -40.2892 L -84.16181172546817 -40.2892 L -17.044711725468147 -52.2359 L 17.15437179141813 -52.2359 L 84.27070999327924 -40.289199999999994 L 178.51699401465646 -40.289199999999994 M 178.51699401465646 -40.289199999999994 L 184.49066063343443 -45.72767784754485 L 191.35629631714517 -118.76668177847137 M 191.35629631714517 -118.76668177847137 L 185.38205298245003 -125.28920000000001 L -185.38205298240194 -125.28919999999997 M -185.38205298240192 -125.28919999999997 L -191.35629631709307 -118.76668177842811 L -184.4906606328435 -45.72767784750118 M -184.4906606328435 -45.72767784750118 L -178.5169940140696 -40.2892 Z " stroke="#191919" stroke-width="0.35 px" style="stroke-width:0.35;stroke-miterlimit:4;stroke-dasharray:none;fill:#cccccc;fill-opacity:1.0;fill-rule: evenodd"/>
<title>b'Fillet006'</title>
</g>
</svg>